<svg width="36" height="36" viewBox="0 0 36 36" fill="none" xmlns="http://www.w3.org/2000/svg">
<path d="M15.1854 9.96497C15.8613 9.2867 15.8613 8.18699 15.1854 7.50871C14.5095 6.83043 13.4136 6.83043 12.7377 7.50871L3.50693 16.7719C3.16898 17.111 3 17.5555 3 18C3 18.2355 3.04671 18.46 3.13133 18.6648C3.21579 18.8697 3.34099 19.0616 3.50693 19.2281L12.7377 28.4913C13.4136 29.1696 14.5095 29.1696 15.1854 28.4913C15.8613 27.813 15.8613 26.7133 15.1854 26.035L8.90922 19.7368H31.2692C32.2251 19.7368 33 18.9592 33 18C33 17.0408 32.2251 16.2632 31.2692 16.2632H8.90922L15.1854 9.96497Z" fill="#232946"/>
</svg>
