<svg width="36" height="36" viewBox="0 0 36 36" fill="none" xmlns="http://www.w3.org/2000/svg">
<mask id="path-1-inside-1_2003_356" fill="white">
<path d="M32.1403 18.5889C31.8548 18.2878 31.6973 17.9007 31.6973 17.5C31.6973 17.0993 31.8548 16.7122 32.1403 16.4111L34.4204 14.0355C34.6716 13.7759 34.8276 13.4493 34.866 13.1025C34.9044 12.7558 34.8232 12.4066 34.6341 12.1052L31.0716 6.39701C30.8844 6.09596 30.5993 5.85733 30.2571 5.71513C29.9148 5.57294 29.5329 5.53444 29.1656 5.60512L25.8168 6.23203C25.3907 6.31358 24.9471 6.24785 24.5697 6.04726C24.1923 5.84666 23.9073 5.52508 23.7683 5.14318L22.6818 2.12409C22.5623 1.79641 22.3346 1.5118 22.0309 1.31049C21.7273 1.10918 21.363 1.00135 20.9895 1.00224H13.8645C13.476 0.983466 13.0916 1.08296 12.77 1.28553C12.4483 1.48811 12.2071 1.78262 12.0832 2.12409L11.0857 5.14318C10.9467 5.52508 10.6617 5.84666 10.2843 6.04726C9.90692 6.24785 9.46332 6.31358 9.0372 6.23203L5.59935 5.60512C5.2512 5.55955 4.89628 5.61043 4.57929 5.75135C4.26231 5.89227 3.99745 6.11692 3.81807 6.39701L0.255525 12.1052C0.0616517 12.4033 -0.0255202 12.7504 0.00647234 13.0971C0.0384649 13.4438 0.187984 13.7722 0.433653 14.0355L2.69587 16.4111C2.98144 16.7122 3.13893 17.0993 3.13893 17.5C3.13893 17.9007 2.98144 18.2878 2.69587 18.5889L0.433653 20.9645C0.187984 21.2278 0.0384649 21.5562 0.00647234 21.9029C-0.0255202 22.2496 0.0616517 22.5967 0.255525 22.8948L3.81807 28.603C4.00528 28.904 4.29032 29.1427 4.63256 29.2849C4.97481 29.4271 5.35678 29.4656 5.72404 29.3949L9.07283 28.768C9.49894 28.6864 9.94254 28.7521 10.3199 28.9527C10.6973 29.1533 10.9824 29.4749 11.1213 29.8568L12.2079 32.8759C12.3318 33.2174 12.573 33.5119 12.8947 33.7145C13.2163 33.917 13.6007 34.0165 13.9891 33.9978H21.1142C21.4877 33.9986 21.852 33.8908 22.1556 33.6895C22.4593 33.4882 22.687 33.2036 22.8064 32.8759L23.893 29.8568C24.032 29.4749 24.317 29.1533 24.6944 28.9527C25.0718 28.7521 25.5154 28.6864 25.9415 28.768L29.2903 29.3949C29.6575 29.4656 30.0395 29.4271 30.3818 29.2849C30.724 29.1427 31.009 28.904 31.1963 28.603L34.7588 22.8948C34.9479 22.5934 35.0291 22.2442 34.9907 21.8975C34.9523 21.5507 34.7963 21.2241 34.545 20.9645L32.1403 18.5889ZM29.4862 20.7996L30.9112 22.2843L28.6312 25.9468L26.5293 25.5509C25.2464 25.308 23.9119 25.5099 22.779 26.1181C21.6462 26.7263 20.7939 27.6986 20.3839 28.8505L19.707 30.6982H15.147L14.5057 28.8175C14.0958 27.6657 13.2435 26.6933 12.1106 26.0851C10.9778 25.4769 9.64323 25.275 8.36032 25.5179L6.25842 25.9139L3.94276 22.2679L5.36778 20.7831C6.24409 19.8756 6.72855 18.7009 6.72855 17.4835C6.72855 16.2661 6.24409 15.0914 5.36778 14.1839L3.94276 12.6992L6.22279 9.06965L8.32469 9.46559C9.6076 9.70848 10.9421 9.50664 12.075 8.8984C13.2078 8.29015 14.0601 7.31785 14.4701 6.16604L15.147 4.30179H19.707L20.3839 6.18254C20.7939 7.33434 21.6462 8.30665 22.779 8.91489C23.9119 9.52314 25.2464 9.72497 26.5293 9.48209L28.6312 9.08614L30.9112 12.7486L29.4862 14.2334C28.6198 15.1388 28.1413 16.3067 28.1413 17.5165C28.1413 18.7263 28.6198 19.8942 29.4862 20.7996ZM17.427 10.9009C16.0178 10.9009 14.6402 11.2879 13.4685 12.013C12.2968 12.7382 11.3836 13.7688 10.8443 14.9746C10.305 16.1805 10.1639 17.5073 10.4388 18.7874C10.7137 20.0675 11.3923 21.2434 12.3888 22.1663C13.3853 23.0892 14.6548 23.7177 16.037 23.9723C17.4191 24.2269 18.8517 24.0962 20.1537 23.5968C21.4556 23.0973 22.5684 22.2515 23.3513 21.1663C24.1342 20.081 24.5521 18.8052 24.5521 17.5C24.5521 15.7498 23.8014 14.0713 22.4652 12.8337C21.129 11.5962 19.3167 10.9009 17.427 10.9009ZM17.427 20.7996C16.7224 20.7996 16.0336 20.606 15.4478 20.2435C14.8619 19.8809 14.4053 19.3656 14.1356 18.7627C13.866 18.1598 13.7954 17.4963 13.9329 16.8563C14.0704 16.2162 14.4097 15.6283 14.9079 15.1669C15.4061 14.7054 16.0409 14.3912 16.732 14.2638C17.4231 14.1365 18.1394 14.2019 18.7903 14.4516C19.4413 14.7013 19.9977 15.1243 20.3892 15.6669C20.7806 16.2095 20.9895 16.8474 20.9895 17.5C20.9895 18.3751 20.6142 19.2143 19.9461 19.8331C19.278 20.4519 18.3719 20.7996 17.427 20.7996Z"/>
</mask>
<path d="M32.1403 18.5889C31.8548 18.2878 31.6973 17.9007 31.6973 17.5C31.6973 17.0993 31.8548 16.7122 32.1403 16.4111L34.4204 14.0355C34.6716 13.7759 34.8276 13.4493 34.866 13.1025C34.9044 12.7558 34.8232 12.4066 34.6341 12.1052L31.0716 6.39701C30.8844 6.09596 30.5993 5.85733 30.2571 5.71513C29.9148 5.57294 29.5329 5.53444 29.1656 5.60512L25.8168 6.23203C25.3907 6.31358 24.9471 6.24785 24.5697 6.04726C24.1923 5.84666 23.9073 5.52508 23.7683 5.14318L22.6818 2.12409C22.5623 1.79641 22.3346 1.5118 22.0309 1.31049C21.7273 1.10918 21.363 1.00135 20.9895 1.00224H13.8645C13.476 0.983466 13.0916 1.08296 12.77 1.28553C12.4483 1.48811 12.2071 1.78262 12.0832 2.12409L11.0857 5.14318C10.9467 5.52508 10.6617 5.84666 10.2843 6.04726C9.90692 6.24785 9.46332 6.31358 9.0372 6.23203L5.59935 5.60512C5.2512 5.55955 4.89628 5.61043 4.57929 5.75135C4.26231 5.89227 3.99745 6.11692 3.81807 6.39701L0.255525 12.1052C0.0616517 12.4033 -0.0255202 12.7504 0.00647234 13.0971C0.0384649 13.4438 0.187984 13.7722 0.433653 14.0355L2.69587 16.4111C2.98144 16.7122 3.13893 17.0993 3.13893 17.5C3.13893 17.9007 2.98144 18.2878 2.69587 18.5889L0.433653 20.9645C0.187984 21.2278 0.0384649 21.5562 0.00647234 21.9029C-0.0255202 22.2496 0.0616517 22.5967 0.255525 22.8948L3.81807 28.603C4.00528 28.904 4.29032 29.1427 4.63256 29.2849C4.97481 29.4271 5.35678 29.4656 5.72404 29.3949L9.07283 28.768C9.49894 28.6864 9.94254 28.7521 10.3199 28.9527C10.6973 29.1533 10.9824 29.4749 11.1213 29.8568L12.2079 32.8759C12.3318 33.2174 12.573 33.5119 12.8947 33.7145C13.2163 33.917 13.6007 34.0165 13.9891 33.9978H21.1142C21.4877 33.9986 21.852 33.8908 22.1556 33.6895C22.4593 33.4882 22.687 33.2036 22.8064 32.8759L23.893 29.8568C24.032 29.4749 24.317 29.1533 24.6944 28.9527C25.0718 28.7521 25.5154 28.6864 25.9415 28.768L29.2903 29.3949C29.6575 29.4656 30.0395 29.4271 30.3818 29.2849C30.724 29.1427 31.009 28.904 31.1963 28.603L34.7588 22.8948C34.9479 22.5934 35.0291 22.2442 34.9907 21.8975C34.9523 21.5507 34.7963 21.2241 34.545 20.9645L32.1403 18.5889ZM29.4862 20.7996L30.9112 22.2843L28.6312 25.9468L26.5293 25.5509C25.2464 25.308 23.9119 25.5099 22.779 26.1181C21.6462 26.7263 20.7939 27.6986 20.3839 28.8505L19.707 30.6982H15.147L14.5057 28.8175C14.0958 27.6657 13.2435 26.6933 12.1106 26.0851C10.9778 25.4769 9.64323 25.275 8.36032 25.5179L6.25842 25.9139L3.94276 22.2679L5.36778 20.7831C6.24409 19.8756 6.72855 18.7009 6.72855 17.4835C6.72855 16.2661 6.24409 15.0914 5.36778 14.1839L3.94276 12.6992L6.22279 9.06965L8.32469 9.46559C9.6076 9.70848 10.9421 9.50664 12.075 8.8984C13.2078 8.29015 14.0601 7.31785 14.4701 6.16604L15.147 4.30179H19.707L20.3839 6.18254C20.7939 7.33434 21.6462 8.30665 22.779 8.91489C23.9119 9.52314 25.2464 9.72497 26.5293 9.48209L28.6312 9.08614L30.9112 12.7486L29.4862 14.2334C28.6198 15.1388 28.1413 16.3067 28.1413 17.5165C28.1413 18.7263 28.6198 19.8942 29.4862 20.7996ZM17.427 10.9009C16.0178 10.9009 14.6402 11.2879 13.4685 12.013C12.2968 12.7382 11.3836 13.7688 10.8443 14.9746C10.305 16.1805 10.1639 17.5073 10.4388 18.7874C10.7137 20.0675 11.3923 21.2434 12.3888 22.1663C13.3853 23.0892 14.6548 23.7177 16.037 23.9723C17.4191 24.2269 18.8517 24.0962 20.1537 23.5968C21.4556 23.0973 22.5684 22.2515 23.3513 21.1663C24.1342 20.081 24.5521 18.8052 24.5521 17.5C24.5521 15.7498 23.8014 14.0713 22.4652 12.8337C21.129 11.5962 19.3167 10.9009 17.427 10.9009ZM17.427 20.7996C16.7224 20.7996 16.0336 20.606 15.4478 20.2435C14.8619 19.8809 14.4053 19.3656 14.1356 18.7627C13.866 18.1598 13.7954 17.4963 13.9329 16.8563C14.0704 16.2162 14.4097 15.6283 14.9079 15.1669C15.4061 14.7054 16.0409 14.3912 16.732 14.2638C17.4231 14.1365 18.1394 14.2019 18.7903 14.4516C19.4413 14.7013 19.9977 15.1243 20.3892 15.6669C20.7806 16.2095 20.9895 16.8474 20.9895 17.5C20.9895 18.3751 20.6142 19.2143 19.9461 19.8331C19.278 20.4519 18.3719 20.7996 17.427 20.7996Z" fill="#272541" stroke="#272541" stroke-width="2" mask="url(#path-1-inside-1_2003_356)"/>
</svg>
